<?xml version="1.0" encoding="UTF-8"?>
<svg width="420" height="265" xmlns="http://www.w3.org/2000/svg">
  <defs>
    <style>
      @import url('https://fonts.googleapis.com/css2?family=Segoe+UI:wght@400;500;600&amp;display=swap');
      * { font-family: 'Segoe UI', Ubuntu, sans-serif; }
    </style>
  </defs>

  <!-- Background -->
  <rect width="420" height="265" fill="#0d1117" rx="10" stroke="#30363d" stroke-width="1"/>

  <!-- Title -->
  <text x="210" y="30" font-size="18" fill="#58a6ff" font-weight="600" text-anchor="middle">
    Top Languages
  </text>

  <!-- Progress Bar Container -->
  <rect x="10" y="50" width="400" height="12" fill="#161b22" rx="6"/>

  <!-- Progress Bar Segments -->
  <rect x="0" y="50" width="164.8" height="12" fill="#f1e05a"/><rect x="164.8" y="50" width="89.2" height="12" fill="#41b883"/><rect x="254" y="50" width="62.4" height="12" fill="#e34c26"/><rect x="316.4" y="50" width="55.60000000000001" height="12" fill="#563d7c"/><rect x="372" y="50" width="13.200000000000001" height="12" fill="#858585"/><rect x="385.2" y="50" width="8" height="12" fill="#858585"/><rect x="393.2" y="50" width="6.800000000000001" height="12" fill="#3178c6"/>

  <!-- Legend -->
  
      <g>
        <circle cx="20" cy="85" r="5" fill="#f1e05a"/>
        <text x="35" y="89" font-size="14" fill="#c9d1d9">JavaScript</text>
        <text x="380" y="89" font-size="14" fill="#8b949e" text-anchor="end">41.2%</text>
      </g>
    
      <g>
        <circle cx="20" cy="110" r="5" fill="#41b883"/>
        <text x="35" y="114" font-size="14" fill="#c9d1d9">Vue</text>
        <text x="380" y="114" font-size="14" fill="#8b949e" text-anchor="end">22.3%</text>
      </g>
    
      <g>
        <circle cx="20" cy="135" r="5" fill="#e34c26"/>
        <text x="35" y="139" font-size="14" fill="#c9d1d9">HTML</text>
        <text x="380" y="139" font-size="14" fill="#8b949e" text-anchor="end">15.6%</text>
      </g>
    
      <g>
        <circle cx="20" cy="160" r="5" fill="#563d7c"/>
        <text x="35" y="164" font-size="14" fill="#c9d1d9">CSS</text>
        <text x="380" y="164" font-size="14" fill="#8b949e" text-anchor="end">13.9%</text>
      </g>
    
      <g>
        <circle cx="20" cy="185" r="5" fill="#858585"/>
        <text x="35" y="189" font-size="14" fill="#c9d1d9">Handlebars</text>
        <text x="380" y="189" font-size="14" fill="#8b949e" text-anchor="end">3.3%</text>
      </g>
    
      <g>
        <circle cx="20" cy="210" r="5" fill="#858585"/>
        <text x="35" y="214" font-size="14" fill="#c9d1d9">SCSS</text>
        <text x="380" y="214" font-size="14" fill="#8b949e" text-anchor="end">2.0%</text>
      </g>
    
      <g>
        <circle cx="20" cy="235" r="5" fill="#3178c6"/>
        <text x="35" y="239" font-size="14" fill="#c9d1d9">TypeScript</text>
        <text x="380" y="239" font-size="14" fill="#8b949e" text-anchor="end">1.7%</text>
      </g>
    
</svg>