<?xml version="1.0" encoding="UTF-8"?>
	<svg width="420" height="240" xmlns="http://www.w3.org/2000/svg">
		<defs>
		<style>
			@import url('https://fonts.googleapis.com/css2?family=Segoe+UI:wght@400;500;600&amp;display=swap');
			* { font-family: 'Segoe UI', Ubuntu, sans-serif; }
		</style>
		</defs>

		<!-- Background -->
		<rect width="420" height="240" fill="#202830" rx="10" stroke="#151B23" stroke-width="1"/>

		<!-- Title -->
		<text x="210" y="30" font-size="18" fill="#D1D7E0" font-weight="600" text-anchor="middle">
			Langages Utilisés
		</text>

		<!-- Progress Bar Segments -->
		<rect x="10" y="50" width="167.6" height="12" fill="#f1e05a"/><rect x="177.6" y="50" width="90.8" height="12" fill="#41b883"/><rect x="268.4" y="50" width="63.6" height="12" fill="#e34c26"/><rect x="332" y="50" width="56.39999999999999" height="12" fill="#663399"/><rect x="388.4" y="50" width="13.600000000000001" height="12" fill="#f7931e"/><rect x="402" y="50" width="8.4" height="12" fill="#c6538c"/>

		<!-- Legend -->
		
		<g>
			<circle cx="20" cy="85" r="5" fill="#f1e05a"/>
			<text x="35" y="89" font-size="14" fill="#D1D7E0">JavaScript</text>
			<text x="380" y="89" font-size="14" fill="#9298A1" text-anchor="end">41.9%</text>
		</g>
		
		<g>
			<circle cx="20" cy="110" r="5" fill="#41b883"/>
			<text x="35" y="114" font-size="14" fill="#D1D7E0">Vue</text>
			<text x="380" y="114" font-size="14" fill="#9298A1" text-anchor="end">22.7%</text>
		</g>
		
		<g>
			<circle cx="20" cy="135" r="5" fill="#e34c26"/>
			<text x="35" y="139" font-size="14" fill="#D1D7E0">HTML</text>
			<text x="380" y="139" font-size="14" fill="#9298A1" text-anchor="end">15.9%</text>
		</g>
		
		<g>
			<circle cx="20" cy="160" r="5" fill="#663399"/>
			<text x="35" y="164" font-size="14" fill="#D1D7E0">CSS</text>
			<text x="380" y="164" font-size="14" fill="#9298A1" text-anchor="end">14.1%</text>
		</g>
		
		<g>
			<circle cx="20" cy="185" r="5" fill="#f7931e"/>
			<text x="35" y="189" font-size="14" fill="#D1D7E0">Handlebars</text>
			<text x="380" y="189" font-size="14" fill="#9298A1" text-anchor="end">3.4%</text>
		</g>
		
		<g>
			<circle cx="20" cy="210" r="5" fill="#c6538c"/>
			<text x="35" y="214" font-size="14" fill="#D1D7E0">SCSS</text>
			<text x="380" y="214" font-size="14" fill="#9298A1" text-anchor="end">2.1%</text>
		</g>
		
	</svg>