<?xml version="1.0" encoding="UTF-8"?>
	<svg width="420" height="290" xmlns="http://www.w3.org/2000/svg">
		<defs>
		<style>
			@import url('https://fonts.googleapis.com/css2?family=Segoe+UI:wght@400;500;600&amp;display=swap');
			* { font-family: 'Segoe UI', Ubuntu, sans-serif; }
		</style>
		</defs>

		<!-- Background -->
		<rect width="420" height="290" fill="#202830" rx="10" stroke="#202830" stroke-width="1"/>

		<!-- Title -->
		<text x="210" y="30" font-size="18" fill="#D1D7E0" font-weight="600" text-anchor="middle">
			Langages Utilisés
		</text>

		<!-- Progress Bar Segments -->
		<rect x="10" y="50" width="234.80000000000004" height="12" fill="#f1e05a"/><rect x="244.80000000000004" y="50" width="143.6" height="12" fill="#41b883"/><rect x="388.40000000000003" y="50" width="15.6" height="12" fill="#3178c6"/><rect x="404.00000000000006" y="50" width="3.2" height="12" fill="#3572A5"/><rect x="407.20000000000005" y="50" width="1.2" height="12" fill="#178600"/><rect x="408.40000000000003" y="50" width="0.4" height="12" fill="#00B4AB"/><rect x="408.8" y="50" width="0.4" height="12" fill="#89e051"/><rect x="409.2" y="50" width="0.4" height="12" fill="#4F5D95"/>

		<!-- Legend -->
		
		<g>
			<circle cx="20" cy="85" r="5" fill="#f1e05a"/>
			<text x="35" y="89" font-size="14" fill="#D1D7E0">JavaScript</text>
			<text x="380" y="89" font-size="14" fill="#9298A1" text-anchor="end">58.7%</text>
		</g>
		
		<g>
			<circle cx="20" cy="110" r="5" fill="#41b883"/>
			<text x="35" y="114" font-size="14" fill="#D1D7E0">Vue</text>
			<text x="380" y="114" font-size="14" fill="#9298A1" text-anchor="end">35.9%</text>
		</g>
		
		<g>
			<circle cx="20" cy="135" r="5" fill="#3178c6"/>
			<text x="35" y="139" font-size="14" fill="#D1D7E0">TypeScript</text>
			<text x="380" y="139" font-size="14" fill="#9298A1" text-anchor="end">3.9%</text>
		</g>
		
		<g>
			<circle cx="20" cy="160" r="5" fill="#3572A5"/>
			<text x="35" y="164" font-size="14" fill="#D1D7E0">Python</text>
			<text x="380" y="164" font-size="14" fill="#9298A1" text-anchor="end">0.8%</text>
		</g>
		
		<g>
			<circle cx="20" cy="185" r="5" fill="#178600"/>
			<text x="35" y="189" font-size="14" fill="#D1D7E0">C#</text>
			<text x="380" y="189" font-size="14" fill="#9298A1" text-anchor="end">0.3%</text>
		</g>
		
		<g>
			<circle cx="20" cy="210" r="5" fill="#00B4AB"/>
			<text x="35" y="214" font-size="14" fill="#D1D7E0">Dart</text>
			<text x="380" y="214" font-size="14" fill="#9298A1" text-anchor="end">0.1%</text>
		</g>
		
		<g>
			<circle cx="20" cy="235" r="5" fill="#89e051"/>
			<text x="35" y="239" font-size="14" fill="#D1D7E0">Shell</text>
			<text x="380" y="239" font-size="14" fill="#9298A1" text-anchor="end">0.1%</text>
		</g>
		
		<g>
			<circle cx="20" cy="260" r="5" fill="#4F5D95"/>
			<text x="35" y="264" font-size="14" fill="#D1D7E0">PHP</text>
			<text x="380" y="264" font-size="14" fill="#9298A1" text-anchor="end">0.1%</text>
		</g>
		
	</svg>