<?xml version="1.0" encoding="UTF-8"?>
	<svg width="420" height="240" xmlns="http://www.w3.org/2000/svg">
		<defs>
		<style>
			@import url('https://fonts.googleapis.com/css2?family=Segoe+UI:wght@400;500;600&amp;display=swap');
			* { font-family: 'Segoe UI', Ubuntu, sans-serif; }
		</style>
		</defs>

		<!-- Background -->
		<rect width="420" height="240" fill="#202830" rx="10" stroke="#202830" stroke-width="1"/>

		<!-- Title -->
		<text x="210" y="30" font-size="18" fill="#D1D7E0" font-weight="600" text-anchor="middle">
			Langages Utilisés
		</text>

		<!-- Progress Bar Segments -->
		<rect x="10" y="50" width="236" height="12" fill="#f1e05a"/><rect x="246" y="50" width="143.2" height="12" fill="#41b883"/><rect x="389.2" y="50" width="15.6" height="12" fill="#3178c6"/><rect x="404.8" y="50" width="3.2" height="12" fill="#3572A5"/><rect x="408" y="50" width="1.2" height="12" fill="#178600"/><rect x="409.2" y="50" width="0.4" height="12" fill="#00B4AB"/>

		<!-- Legend -->
		
		<g>
			<circle cx="20" cy="85" r="5" fill="#f1e05a"/>
			<text x="35" y="89" font-size="14" fill="#D1D7E0">JavaScript</text>
			<text x="380" y="89" font-size="14" fill="#9298A1" text-anchor="end">59.0%</text>
		</g>
		
		<g>
			<circle cx="20" cy="110" r="5" fill="#41b883"/>
			<text x="35" y="114" font-size="14" fill="#D1D7E0">Vue</text>
			<text x="380" y="114" font-size="14" fill="#9298A1" text-anchor="end">35.8%</text>
		</g>
		
		<g>
			<circle cx="20" cy="135" r="5" fill="#3178c6"/>
			<text x="35" y="139" font-size="14" fill="#D1D7E0">TypeScript</text>
			<text x="380" y="139" font-size="14" fill="#9298A1" text-anchor="end">3.9%</text>
		</g>
		
		<g>
			<circle cx="20" cy="160" r="5" fill="#3572A5"/>
			<text x="35" y="164" font-size="14" fill="#D1D7E0">Python</text>
			<text x="380" y="164" font-size="14" fill="#9298A1" text-anchor="end">0.8%</text>
		</g>
		
		<g>
			<circle cx="20" cy="185" r="5" fill="#178600"/>
			<text x="35" y="189" font-size="14" fill="#D1D7E0">C#</text>
			<text x="380" y="189" font-size="14" fill="#9298A1" text-anchor="end">0.3%</text>
		</g>
		
		<g>
			<circle cx="20" cy="210" r="5" fill="#00B4AB"/>
			<text x="35" y="214" font-size="14" fill="#D1D7E0">Dart</text>
			<text x="380" y="214" font-size="14" fill="#9298A1" text-anchor="end">0.1%</text>
		</g>
		
	</svg>