<?xml version="1.0" encoding="UTF-8"?>
  <svg width="420" height="290" xmlns="http://www.w3.org/2000/svg">
    <defs>
      <style>
        @import url('https://fonts.googleapis.com/css2?family=Segoe+UI:wght@400;500;600&amp;display=swap');
        * { font-family: 'Segoe UI', Ubuntu, sans-serif; }
      </style>
    </defs>

    <!-- Background -->
    <rect width="420" height="290" fill="#202830" rx="10" stroke="#151B23" stroke-width="1"/>

    <!-- Title -->
    <text x="210" y="30" font-size="18" fill="#D1D7E0" font-weight="600" text-anchor="middle">
      Top Langages
    </text>

    <!-- Progress Bar Container -->
    <rect x="10" y="50" width="400" height="12" fill="#161b2200" rx="6"/>

    <!-- Progress Bar Segments -->
    <rect x="10" y="50" width="164" height="12" fill="#f1e05a"/><rect x="174" y="50" width="88.4" height="12" fill="#41b883"/><rect x="262.4" y="50" width="62" height="12" fill="#e34c26"/><rect x="324.4" y="50" width="55.2" height="12" fill="#663399"/><rect x="379.59999999999997" y="50" width="13.200000000000001" height="12" fill="#f7931e"/><rect x="392.79999999999995" y="50" width="8" height="12" fill="#c6538c"/><rect x="400.79999999999995" y="50" width="6.800000000000001" height="12" fill="#3178c6"/><rect x="407.59999999999997" y="50" width="2.4" height="12" fill="#3572A5"/>

    <!-- Legend -->
    
      <g>
        <circle cx="20" cy="85" r="5" fill="#f1e05a"/>
        <text x="35" y="89" font-size="14" fill="#D1D7E0">JavaScript</text>
        <text x="380" y="89" font-size="14" fill="#9298A1" text-anchor="end">41.0%</text>
      </g>
    
      <g>
        <circle cx="20" cy="110" r="5" fill="#41b883"/>
        <text x="35" y="114" font-size="14" fill="#D1D7E0">Vue</text>
        <text x="380" y="114" font-size="14" fill="#9298A1" text-anchor="end">22.1%</text>
      </g>
    
      <g>
        <circle cx="20" cy="135" r="5" fill="#e34c26"/>
        <text x="35" y="139" font-size="14" fill="#D1D7E0">HTML</text>
        <text x="380" y="139" font-size="14" fill="#9298A1" text-anchor="end">15.5%</text>
      </g>
    
      <g>
        <circle cx="20" cy="160" r="5" fill="#663399"/>
        <text x="35" y="164" font-size="14" fill="#D1D7E0">CSS</text>
        <text x="380" y="164" font-size="14" fill="#9298A1" text-anchor="end">13.8%</text>
      </g>
    
      <g>
        <circle cx="20" cy="185" r="5" fill="#f7931e"/>
        <text x="35" y="189" font-size="14" fill="#D1D7E0">Handlebars</text>
        <text x="380" y="189" font-size="14" fill="#9298A1" text-anchor="end">3.3%</text>
      </g>
    
      <g>
        <circle cx="20" cy="210" r="5" fill="#c6538c"/>
        <text x="35" y="214" font-size="14" fill="#D1D7E0">SCSS</text>
        <text x="380" y="214" font-size="14" fill="#9298A1" text-anchor="end">2.0%</text>
      </g>
    
      <g>
        <circle cx="20" cy="235" r="5" fill="#3178c6"/>
        <text x="35" y="239" font-size="14" fill="#D1D7E0">TypeScript</text>
        <text x="380" y="239" font-size="14" fill="#9298A1" text-anchor="end">1.7%</text>
      </g>
    
      <g>
        <circle cx="20" cy="260" r="5" fill="#3572A5"/>
        <text x="35" y="264" font-size="14" fill="#D1D7E0">Python</text>
        <text x="380" y="264" font-size="14" fill="#9298A1" text-anchor="end">0.6%</text>
      </g>
    
  </svg>