<?xml version="1.0" encoding="UTF-8"?>
<svg width="420" height="215" xmlns="http://www.w3.org/2000/svg">
  <defs>
    <style>
      @import url('https://fonts.googleapis.com/css2?family=Segoe+UI:wght@400;500;600&amp;display=swap');
      * { font-family: 'Segoe UI', Ubuntu, sans-serif; }
    </style>
  </defs>

  <!-- Background -->
  <rect width="420" height="215" fill="#0d1117" rx="10" stroke="#30363d" stroke-width="1"/>

  <!-- Title -->
  <text x="210" y="30" font-size="18" fill="#58a6ff" font-weight="600" text-anchor="middle">
    Top Languages
  </text>

  <!-- Progress Bar Container -->
  <rect x="10" y="50" width="400" height="12" fill="#161b22" rx="6"/>

  <!-- Progress Bar Segments -->
  <rect x="0" y="50" width="171.2" height="12" fill="#f1e05a"/><rect x="171.2" y="50" width="92.4" height="12" fill="#41b883"/><rect x="263.6" y="50" width="64.8" height="12" fill="#e34c26"/><rect x="328.40000000000003" y="50" width="57.60000000000001" height="12" fill="#563d7c"/><rect x="386.00000000000006" y="50" width="14.000000000000002" height="12" fill="#858585"/>

  <!-- Legend -->
  
      <g>
        <circle cx="20" cy="85" r="5" fill="#f1e05a"/>
        <text x="35" y="89" font-size="14" fill="#c9d1d9">JavaScript</text>
        <text x="380" y="89" font-size="14" fill="#8b949e" text-anchor="end">42.8%</text>
      </g>
    
      <g>
        <circle cx="20" cy="110" r="5" fill="#41b883"/>
        <text x="35" y="114" font-size="14" fill="#c9d1d9">Vue</text>
        <text x="380" y="114" font-size="14" fill="#8b949e" text-anchor="end">23.1%</text>
      </g>
    
      <g>
        <circle cx="20" cy="135" r="5" fill="#e34c26"/>
        <text x="35" y="139" font-size="14" fill="#c9d1d9">HTML</text>
        <text x="380" y="139" font-size="14" fill="#8b949e" text-anchor="end">16.2%</text>
      </g>
    
      <g>
        <circle cx="20" cy="160" r="5" fill="#563d7c"/>
        <text x="35" y="164" font-size="14" fill="#c9d1d9">CSS</text>
        <text x="380" y="164" font-size="14" fill="#8b949e" text-anchor="end">14.4%</text>
      </g>
    
      <g>
        <circle cx="20" cy="185" r="5" fill="#858585"/>
        <text x="35" y="189" font-size="14" fill="#c9d1d9">Handlebars</text>
        <text x="380" y="189" font-size="14" fill="#8b949e" text-anchor="end">3.5%</text>
      </g>
    
</svg>