<?xml version="1.0" encoding="UTF-8"?>
  <svg width="420" height="215" xmlns="http://www.w3.org/2000/svg">
    <defs>
      <style>
        @import url('https://fonts.googleapis.com/css2?family=Segoe+UI:wght@400;500;600&amp;display=swap');
        * { font-family: 'Segoe UI', Ubuntu, sans-serif; }
      </style>
    </defs>

    <!-- Background -->
    <rect width="420" height="215" fill="#202830" rx="10" stroke="#151B23" stroke-width="1"/>

    <!-- Title -->
    <text x="210" y="30" font-size="18" fill="#D1D7E0" font-weight="600" text-anchor="middle">
      Top Langages
    </text>

    <!-- Progress Bar Container -->
    <rect x="10" y="50" width="400" height="12" fill="#161b2200" rx="6"/>

    <!-- Progress Bar Segments -->
    <rect x="10" y="50" width="171.2" height="12" fill="#f1e05a"/><rect x="181.2" y="50" width="92.4" height="12" fill="#41b883"/><rect x="273.6" y="50" width="64.8" height="12" fill="#e34c26"/><rect x="338.40000000000003" y="50" width="57.60000000000001" height="12" fill="#663399"/><rect x="396.00000000000006" y="50" width="14.000000000000002" height="12" fill="#f7931e"/>

    <!-- Legend -->
    
      <g>
        <circle cx="20" cy="85" r="5" fill="#f1e05a"/>
        <text x="35" y="89" font-size="14" fill="#D1D7E0">JavaScript</text>
        <text x="380" y="89" font-size="14" fill="#9298A1" text-anchor="end">42.8%</text>
      </g>
    
      <g>
        <circle cx="20" cy="110" r="5" fill="#41b883"/>
        <text x="35" y="114" font-size="14" fill="#D1D7E0">Vue</text>
        <text x="380" y="114" font-size="14" fill="#9298A1" text-anchor="end">23.1%</text>
      </g>
    
      <g>
        <circle cx="20" cy="135" r="5" fill="#e34c26"/>
        <text x="35" y="139" font-size="14" fill="#D1D7E0">HTML</text>
        <text x="380" y="139" font-size="14" fill="#9298A1" text-anchor="end">16.2%</text>
      </g>
    
      <g>
        <circle cx="20" cy="160" r="5" fill="#663399"/>
        <text x="35" y="164" font-size="14" fill="#D1D7E0">CSS</text>
        <text x="380" y="164" font-size="14" fill="#9298A1" text-anchor="end">14.4%</text>
      </g>
    
      <g>
        <circle cx="20" cy="185" r="5" fill="#f7931e"/>
        <text x="35" y="189" font-size="14" fill="#D1D7E0">Handlebars</text>
        <text x="380" y="189" font-size="14" fill="#9298A1" text-anchor="end">3.5%</text>
      </g>
    
  </svg>